<svg xmlns="http://www.w3.org/2000/svg" viewBox="0 0 100 100">
  <!-- Fundo circular -->
  <circle cx="50" cy="50" r="45" fill="#0a2040"/>
  
  <!-- Base da coroa -->
  <path d="M25 65 L75 65 L80 75 L20 75 Z" fill="#c9a55c"/>
  
  <!-- Pontas da coroa -->
  <path d="M30 65 L37 40 L44 65" fill="#c9a55c"/>
  <path d="M44 65 L50 35 L56 65" fill="#c9a55c"/>
  <path d="M56 65 L63 40 L70 65" fill="#c9a55c"/>
  
  <!-- Contorno das pontas -->
  <path d="M30 65 L37 40 L44 65 M44 65 L50 35 L56 65 M56 65 L63 40 L70 65" fill="none" stroke="#d9b56c" stroke-width="1.5"/>
  
  <!-- Pedras azuis -->
  <circle cx="30" cy="70" r="3" fill="#4e9cff"/>
  <circle cx="50" cy="70" r="3" fill="#4e9cff"/>
  <circle cx="70" cy="70" r="3" fill="#4e9cff"/>
  
  <!-- Detalhes ornamentais nas pontas -->
  <circle cx="37" cy="50" r="2" fill="#d9b56c"/>
  <circle cx="50" cy="45" r="2" fill="#d9b56c"/>
  <circle cx="63" cy="50" r="2" fill="#d9b56c"/>
  
  <!-- Brilhos nas pedras -->
  <circle cx="29" cy="69" r="1" fill="white" opacity="0.7"/>
  <circle cx="49" cy="69" r="1" fill="white" opacity="0.7"/>
  <circle cx="69" cy="69" r="1" fill="white" opacity="0.7"/>
</svg>
